<svg width="40" height="40" viewBox="0 0 40 40" fill="none" xmlns="http://www.w3.org/2000/svg">
<circle cx="20" cy="20" r="20" fill="#575DFB"/>
<path d="M10.832 19.2929C10.4415 19.6834 10.4415 20.3166 10.832 20.7071L17.196 27.0711C17.5865 27.4616 18.2197 27.4616 18.6102 27.0711C19.0007 26.6805 19.0007 26.0474 18.6102 25.6569L12.9534 20L18.6102 14.3431C19.0007 13.9526 19.0007 13.3195 18.6102 12.9289C18.2197 12.5384 17.5865 12.5384 17.196 12.9289L10.832 19.2929ZM29.2314 21C29.7837 21 30.2314 20.5523 30.2314 20C30.2314 19.4477 29.7837 19 29.2314 19V21ZM11.5391 21L29.2314 21V19L11.5391 19V21Z" fill="white"/>
</svg>
