<svg width="18" height="18" viewBox="0 0 18 18" fill="none" xmlns="http://www.w3.org/2000/svg">
<path d="M11.8358 1.08579C11.4607 0.710714 10.952 0.5 10.4216 0.5H4.5C4.10218 0.5 3.72064 0.658035 3.43934 0.93934C3.15804 1.22064 3 1.60218 3 2V14C3 14.3978 3.15804 14.7794 3.43934 15.0607C3.72064 15.342 4.10218 15.5 4.5 15.5H13.5C13.8978 15.5 14.2794 15.342 14.5607 15.0607C14.842 14.7794 15 14.3978 15 14V5.07843C15 4.54799 14.7893 4.03929 14.4142 3.66421L11.8358 1.08579Z" fill="#575DFB"/>
<path d="M7.10682 11.3145H8.80082V5.941C8.80082 5.77967 8.80632 5.6165 8.81732 5.4515L7.40932 6.656C7.37265 6.68533 7.33599 6.70733 7.29932 6.722C7.26265 6.733 7.22782 6.7385 7.19482 6.7385C7.13982 6.7385 7.09032 6.7275 7.04632 6.7055C7.00232 6.67983 6.96932 6.6505 6.94732 6.6175L6.63932 6.194L8.98232 4.1645H9.77982V11.3145H11.3308V12.0625H7.10682V11.3145Z" fill="white"/>
</svg>
